<svg width="63" height="63" viewBox="0 0 63 63" fill="none" xmlns="http://www.w3.org/2000/svg">
<path d="M22.05 15.75C23.7924 15.75 25.2 14.3423 25.2 12.6C25.2 10.8576 23.7924 9.44995 22.05 9.44995H15.75C10.5329 9.44995 6.30005 13.6828 6.30005 18.9V44.0999C6.30005 49.3171 10.5329 53.5499 15.75 53.5499H22.05C23.7924 53.5499 25.2 52.1423 25.2 50.3999C25.2 48.6576 23.7924 47.2499 22.05 47.2499H15.75C14.0077 47.2499 12.6 45.8423 12.6 44.0999V18.9C12.6 17.1576 14.0077 15.75 15.75 15.75H22.05ZM55.7747 33.7246C57.0052 32.4942 57.0052 30.4959 55.7747 29.2654L43.1747 16.6654C41.9443 15.435 39.946 15.435 38.7155 16.6654C37.485 17.8959 37.485 19.8942 38.7155 21.1246L45.9408 28.35H25.2C23.4577 28.35 22.05 29.7576 22.05 31.5C22.05 33.2423 23.4577 34.65 25.2 34.65H45.9408L38.7155 41.8753C37.485 43.1057 37.485 45.104 38.7155 46.3345C39.946 47.565 41.9443 47.565 43.1747 46.3345L55.7747 33.7345V33.7246Z" fill="#262626"/>
</svg>
