<svg width="239" height="61" viewBox="0 0 239 61" fill="none" xmlns="http://www.w3.org/2000/svg">
<path d="M34.3912 0.135091C34.7502 0.130516 34.7502 0.130516 35.1166 0.125849C36.6954 0.122639 37.9854 0.326763 39.5066 0.67989C40.5212 0.61422 41.4463 0.501178 42.4279 0.299868C45.4736 -0.24037 48.9994 -0.100495 51.6852 1.13032C52.224 1.42704 52.224 1.42704 52.5501 1.67609C52.9839 1.62216 52.9839 1.62216 53.4265 1.56713C57.409 1.104 60.7366 1.32774 64.0447 3.13926C65.1914 3.84062 66.2356 4.58147 67.224 5.41185C67.224 5.57623 67.224 5.7406 67.224 5.90995C67.4292 5.91637 67.6343 5.92279 67.8456 5.92941C71.5506 6.11692 73.8286 7.33754 76.3545 9.39666C77.3878 10.4701 77.6767 11.4339 77.8626 12.7433C78.1633 14.2762 79.2024 14.9241 80.7541 15.8545C82.7492 17.1124 83.4616 18.4387 83.8545 20.3549C83.8329 20.9467 83.7986 21.5384 83.7526 22.1294C83.7024 23.3727 83.7024 23.3727 84.3856 24.4652C84.848 24.8287 85.3181 25.1864 85.7957 25.5383C87.8083 27.181 87.933 29.3411 87.8592 31.4863C87.7601 32.3762 87.557 33.1889 87.1943 34.0371C87.08 34.7806 87.4524 35.3413 87.7675 36.0451C88.1722 38.7328 87.5697 40.9138 85.5741 43.1518C83.8538 44.7711 81.3868 46.1512 78.6371 46.5052C77.9581 46.522 77.2784 46.5264 76.599 46.5208C76.2476 46.5185 75.8962 46.5163 75.5342 46.514C75.2668 46.5111 74.9995 46.5082 74.724 46.5052C74.7194 46.6561 74.7148 46.807 74.71 46.9624C74.5548 49.0457 73.7589 50.8674 71.7281 52.3268C68.6176 54.1419 65.067 54.3895 61.301 54.04C61.1034 54.0191 60.9059 53.9982 60.7023 53.9767C60.7258 54.1189 60.7494 54.2612 60.7736 54.4077C61.0394 56.1806 61.0532 57.9207 61.0284 59.7049C59.6295 59.7049 58.2306 59.7049 56.7893 59.7049C56.7653 59.2045 56.7653 59.2045 56.7409 58.6941C56.7164 58.2475 56.6917 57.801 56.667 57.3545C56.6518 57.0263 56.6518 57.0263 56.6364 56.6915C56.6217 54.1031 56.6217 54.1031 55.0773 51.961C54.7814 51.8454 54.4855 51.7298 54.1806 51.6107C50.6236 50.064 48.1936 48.0243 46.1698 45.3261C45.7677 44.7332 45.7677 44.7332 45.0501 44.5128C45.0501 44.6772 45.0501 44.8415 45.0501 45.0109C44.8349 45.0109 44.6197 45.0109 44.398 45.0109C45.5771 46.7687 46.9022 48.4363 48.2906 50.1009C53.746 56.6575 53.746 56.6575 53.5284 59.7049C52.1295 59.7049 50.7306 59.7049 49.2893 59.7049C49.2287 59.407 49.1682 59.109 49.1058 58.8021C48.2512 55.947 46.0073 53.4837 43.8606 51.1078C42.7373 49.8619 41.7432 48.5871 40.811 47.2524C40.6277 47.3098 40.4444 47.3673 40.2556 47.4265C36.78 48.4651 32.2049 48.44 28.705 47.5014C24.6134 46.0813 21.6262 43.6878 19.9414 40.528C19.6765 39.6252 19.6765 39.6252 19.6153 39.0337C19.3442 39.0732 19.0731 39.1127 18.7938 39.1533C14.923 39.5946 11.3457 39.5045 7.99085 37.8643C4.77851 36.0445 2.61751 33.6094 2.00665 30.566C2.01644 29.9588 2.03776 29.3516 2.06779 28.7448C2.10292 27.4063 1.95618 26.4284 1.03603 25.2746C-0.216999 23.6345 -0.145443 21.6949 0.274313 19.8879C0.790955 18.4719 1.56736 16.8928 3.0193 15.9012C3.85419 15.1886 3.84277 14.6678 3.94279 13.7239C4.37304 11.0164 5.73428 9.11909 8.52839 7.40426C10.8236 6.2452 10.8236 6.2452 12.1345 6.06853C13.0385 5.84209 13.3115 5.44183 13.8477 4.85149C15.6085 3.05358 17.7385 2.01364 20.5936 1.42704C22.091 1.30941 23.5428 1.34952 25.0289 1.53016C27.0061 1.7686 28.0405 1.58431 29.7215 0.736315C31.1692 0.0608564 32.74 0.136181 34.3912 0.135091ZM28.584 5.08789C27.4695 6.39016 27.0378 7.9695 26.6339 9.47935C26.5775 9.61644 26.5212 9.75352 26.4632 9.89476C25.5538 10.242 24.8586 10.2077 23.8545 10.1438C22.9236 9.07738 23.0397 8.15847 23.2023 6.90616C23.4591 6.13513 23.7891 5.40154 24.1806 4.6647C21.949 4.5734 20.127 4.70787 18.3263 5.7971C17.3679 6.49214 16.7525 7.01923 16.2526 7.96462C15.4849 8.92014 14.6772 8.92709 13.3012 9.18944C11.5224 9.61815 10.1012 10.5325 8.99714 11.6692C8.48003 12.4591 8.51805 12.5885 8.85448 13.3815C9.26684 13.3728 9.26684 13.3728 9.68753 13.364C10.2235 13.3572 10.2235 13.3572 10.7702 13.3503C11.3037 13.3417 11.3037 13.3417 11.8479 13.3328C12.7675 13.3815 12.7675 13.3815 13.4197 13.8796C13.5012 14.6267 13.5012 14.6267 13.4197 15.3739C12.6116 15.9911 12.2329 15.9581 11.1167 16.0588C8.73889 16.3614 7.11722 17.1818 5.45094 18.487C4.25766 19.9452 4.00903 21.4057 4.28926 23.0944C5.03779 24.7889 6.37379 26.2425 8.45961 27.1016C9.6952 27.4901 10.9844 27.7019 12.286 27.9227C13.0936 28.0755 13.0936 28.0755 13.4197 28.3245C13.4808 29.0561 13.4808 29.0561 13.4197 29.8188C12.7675 30.3169 12.7675 30.3169 11.9052 30.3831C11.3938 30.3811 11.3938 30.3811 10.8721 30.3792C10.5338 30.3805 10.1954 30.3817 9.84675 30.3831C8.84274 30.3161 8.14316 30.1192 7.22404 29.8188C6.90122 29.8188 6.57839 29.8188 6.24578 29.8188C6.60838 31.9651 7.93442 33.7275 10.1588 35.0489C12.2301 36.0217 14.2245 36.4966 16.6806 36.2941C17.59 36.091 18.4155 35.833 19.2893 35.547C19.3027 35.2491 19.3162 34.9511 19.33 34.6442C19.6801 32.2936 21.1186 29.8606 23.2647 28.1484C23.8545 27.8264 23.8545 27.8264 25.1181 27.6863C26.1371 27.8264 26.1371 27.8264 26.4632 28.0755C26.7729 29.7311 26.7729 29.7311 25.9881 30.5844C25.7884 30.7581 25.5887 30.9318 25.383 31.1108C23.433 32.872 23.091 34.9572 23.2023 37.2125C23.5331 39.4644 24.8843 41.5063 27.1153 43.0185C30.2821 44.7372 33.0776 44.9664 36.898 44.7619C39.5758 44.3472 41.6426 43.072 43.4197 41.5242C43.901 40.9147 43.901 40.9147 44.0719 40.2789C43.8963 39.7777 43.8963 39.7777 43.5012 39.3294C42.3248 37.7115 41.9105 36.1476 42.1153 34.3017C42.5026 33.8036 42.5026 33.8036 43.0936 33.5546C43.9088 33.4612 43.9088 33.4612 44.724 33.5546C45.6794 34.1161 45.854 34.5914 46.0284 35.4847C46.5351 37.6672 47.6139 39.5336 50.023 40.8393C52.0576 41.8124 54.0454 42.1843 56.4632 42.0223C59.5688 41.4522 61.7698 40.2615 63.6371 38.2865C64.4935 37.0807 64.7386 35.8797 64.8408 34.5216C64.9414 34.0527 64.9414 34.0527 65.5936 33.5546C66.5849 33.474 67.2709 33.4408 68.1615 33.8036C69.0067 34.9512 68.5853 36.2829 68.1615 37.4927C67.5535 38.9351 66.5952 40.2221 65.5936 41.5242C66.7572 42.0741 67.7482 42.0864 69.099 42.1157C70.5111 42.1745 71.5738 42.2191 72.7879 42.785C74.4949 43.5565 76.3944 43.4208 78.311 43.2675C80.4859 42.7446 82.0521 41.4274 83.1819 39.9521C83.7381 38.4778 83.9034 37.0298 83.0393 35.6092C82.5057 34.7263 82.3933 34.2637 82.5501 33.3055C82.7923 32.8972 82.7923 32.8972 83.0393 32.4805C83.7918 31.0676 83.8355 29.7689 83.1004 28.3401C82.6137 27.5268 82.6137 27.5268 81.5719 27.0793C81.3928 27.242 81.3928 27.242 81.2101 27.4081C79.3102 29.0043 77.0447 30.1479 74.2043 30.4356C73.144 30.4553 72.1791 30.4701 71.1371 30.3169C70.4849 29.5698 70.4849 29.5698 70.6072 28.7759C70.6745 28.5448 70.7417 28.3136 70.811 28.0755C71.1612 28.0029 71.5113 27.9303 71.8721 27.8556C74.9626 27.1874 77.3643 26.6257 79.1058 24.4331C79.9558 22.9662 79.9673 21.306 79.4001 19.7731C78.581 18.3595 77.147 17.2799 75.3253 16.6094C74.7241 16.3701 74.724 16.3701 74.398 15.872C74.3641 15.452 74.3381 15.0316 74.3164 14.6112C74.1147 12.8023 73.2558 11.3728 71.4632 10.1594C69.1833 8.96225 66.9947 8.95911 64.2893 9.14761C62.0449 9.64288 60.6381 11.2136 59.398 12.6343C59.2901 13.2683 59.2544 13.8949 59.2158 14.5333C59.0465 15.2289 58.836 15.4587 58.0936 15.872C57.095 15.9498 57.095 15.9498 56.1371 15.872C55.3484 15.2696 55.38 15.0971 55.3626 14.2687C55.4528 11.7491 56.7044 9.98929 58.9649 8.19421C59.9261 7.50934 60.8993 6.9479 62.0067 6.40805C61.7874 5.65092 61.7874 5.65092 61.1099 5.37002C58.3554 4.41673 56.3986 4.50103 53.5284 5.1628C52.4609 5.30158 51.8617 5.3107 50.9503 4.84565C50.5039 4.57686 50.059 4.3067 49.6153 4.03526C47.9235 3.0838 46.284 3.13073 44.3075 3.34746C44.1221 3.37121 43.9368 3.39497 43.7458 3.41945C43.8597 3.62074 43.9736 3.82203 44.091 4.02943C44.2394 4.29557 44.3877 4.56171 44.5406 4.83592C44.6882 5.09886 44.8357 5.36179 44.9877 5.63269C45.6257 6.90587 45.8015 8.03266 45.7023 9.39666C45.3795 9.7665 45.3795 9.7665 45.0501 10.1438C43.9088 10.2372 43.9088 10.2372 42.7675 10.1438C42.0837 9.36037 42.0118 9.01359 41.8708 8.10471C41.4779 6.31859 40.3726 5.30914 38.7118 4.0732C35.4307 2.48407 31.1961 2.92624 28.584 5.08789Z" fill="#F8F8F8"/>
<path d="M106.354 35.0489C110.094 35.0181 113.833 34.9872 117.686 34.9555C118.859 34.9419 120.032 34.9283 121.241 34.9143C122.693 34.9075 122.693 34.9075 123.376 34.9063C123.845 34.904 124.315 34.8988 124.784 34.8911C128.017 34.841 130.689 35.0585 133.42 36.5432C135.495 38.2164 135.878 39.5433 135.814 41.8277C135.617 43.4902 134.658 44.4114 133.053 45.4779C132.425 45.8321 131.786 46.1746 131.137 46.5052C131.473 46.6028 131.81 46.7004 132.156 46.8009C133.447 47.2225 134.36 47.7594 135.376 48.4976C135.376 48.662 135.376 48.8264 135.376 48.9957C135.565 49.0471 135.753 49.0984 135.947 49.1514C137.071 49.6758 137.748 50.4639 138.177 51.4142C138.592 53.181 138.856 55.5574 137.618 57.1366C136.077 58.6328 134.183 59.6776 131.789 60.203C129.98 60.3374 128.183 60.3194 126.367 60.3003C125.845 60.2984 125.322 60.297 124.8 60.296C123.435 60.2922 122.07 60.2825 120.704 60.2714C119.307 60.2611 117.91 60.2566 116.514 60.2516C113.779 60.241 111.045 60.224 108.311 60.203C108.311 59.7099 108.311 59.2167 108.311 58.7087C107.665 58.7087 107.02 58.7087 106.354 58.7087C106.354 50.9009 106.354 43.0932 106.354 35.0489Z" fill="#FC8138"/>
<path d="M177.927 41.9522C179.301 42.8416 179.906 43.6988 180.376 45.0109C180.447 45.7176 180.489 46.4026 180.5 47.1093C180.505 47.3056 180.511 47.5019 180.517 47.7042C180.534 48.3267 180.547 48.9491 180.56 49.5716C180.574 50.1986 180.589 50.8255 180.606 51.4524C180.617 51.8415 180.625 52.2307 180.632 52.6199C180.551 53.4962 180.551 53.4962 181.028 54.2258C181.782 54.308 182.535 54.3901 183.311 54.4748C183.311 55.7898 183.311 57.1048 183.311 58.4596C180.699 59.3984 177.767 59.6251 174.996 58.8955C173.927 58.4874 173.081 58.0978 172.224 57.4634C172.224 57.2991 172.224 57.1347 172.224 56.9653C171.932 57.0854 171.641 57.2055 171.34 57.3292C167.613 58.8305 163.851 59.8116 159.581 59.0443C157.654 58.5297 156.359 57.793 155.268 56.4672C154.872 55.5618 154.856 54.7179 154.84 53.7744C154.825 53.5131 154.825 53.5131 154.811 53.2466C154.787 51.743 155.458 50.9275 156.758 49.7944C158.296 48.7406 159.795 48.3491 161.789 47.9995C162.025 47.9485 162.262 47.8974 162.505 47.8448C165.351 47.2957 168.334 47.4603 171.246 47.5014C170.945 46.1387 170.945 46.1387 170.003 45.0158C169.163 44.7171 168.582 44.67 167.659 44.684C167.383 44.685 167.107 44.6859 166.823 44.6869C165.962 44.7681 165.435 44.8784 164.724 45.26C164.616 45.5887 164.509 45.9174 164.398 46.2562C161.385 46.2562 158.372 46.2562 155.268 46.2562C155.268 44.5764 155.557 43.5478 157.125 42.3453C162.435 39.0938 172.335 38.9135 177.927 41.9522Z" fill="#FBFBFB"/>
<path d="M126.898 1.92514C131.085 1.89432 131.085 1.89432 135.356 1.86288C136.231 1.85381 137.107 1.84474 138.009 1.83539C138.71 1.83248 139.412 1.82994 140.113 1.82786C140.472 1.82276 140.83 1.81766 141.199 1.81241C143.61 1.81158 145.812 2.01355 147.66 3.3008C148.75 4.22525 148.842 5.04428 148.848 6.26796C148.853 6.54502 148.859 6.82208 148.864 7.10753C148.687 8.29723 148.086 8.92245 146.952 9.72354C146.137 10.1438 146.137 10.1438 145.159 10.1438C145.159 10.3082 145.159 10.4726 145.159 10.6419C145.421 10.6419 145.683 10.6419 145.954 10.6419C147.863 11.0512 149.334 12.0892 150.455 13.3328C151.256 14.5968 151.315 15.8796 150.803 17.1999C150.001 18.7451 149 19.6584 147.002 20.3835C146.059 20.6238 145.328 20.664 144.336 20.6605C143.983 20.6604 143.631 20.6604 143.268 20.6604C142.703 20.6565 142.703 20.6565 142.126 20.6526C141.737 20.6519 141.349 20.6512 140.949 20.6504C139.709 20.6477 138.47 20.6414 137.231 20.6351C136.39 20.6326 135.549 20.6303 134.708 20.6283C132.648 20.6228 130.588 20.6144 128.528 20.6039C128.528 20.2752 128.528 19.9464 128.528 19.6077C127.99 19.6077 127.452 19.6077 126.898 19.6077C126.898 13.7725 126.898 7.93722 126.898 1.92514Z" fill="#FC8138"/>
<path d="M232.876 42.0223C235.087 43.2503 235.82 45.0382 236.463 47.0033C236.463 48.2361 236.463 49.4689 236.463 50.7391C230.652 50.7391 224.841 50.7391 218.855 50.7391C219.468 53.2734 219.468 53.2734 220.628 54.1479C222.334 54.628 223.907 54.6633 225.702 54.4748C227.364 53.815 227.357 53.4229 227.985 51.9843C230.89 51.9843 233.796 51.9843 236.789 51.9843C235.855 55.9083 235.855 55.9083 233.564 57.3545C229.393 59.4614 224.03 59.7034 219.207 59.0278C215.908 58.2952 213.249 57.1428 211.314 54.9262C209.603 52.4506 209.191 49.6883 209.948 46.941C211.056 44.5245 212.339 42.5223 215.403 41.3257C221.134 39.289 227.512 39.376 232.876 42.0223Z" fill="#FCFCFC"/>
<path d="M184.941 40.528C192.366 40.528 199.791 40.528 207.441 40.528C207.441 43.0487 207.441 43.0487 206.709 43.8046C206.546 43.9791 206.383 44.1537 206.215 44.3335C206.035 44.5159 205.854 44.6984 205.668 44.8864C205.283 45.295 204.899 45.704 204.514 46.1131C204.305 46.3326 204.096 46.5521 203.881 46.7782C202.606 48.1366 201.391 49.526 200.166 50.9103C198.925 52.3049 198.925 52.3049 197.659 53.7277C200.995 53.8099 204.331 53.892 207.768 53.9767C207.768 55.5383 207.768 57.0998 207.768 58.7087C200.02 58.7087 192.272 58.7087 184.289 58.7087C184.289 56.6699 184.368 56.0483 185.778 54.5381C185.932 54.3647 186.086 54.1914 186.244 54.0128C186.735 53.4629 187.234 52.9182 187.734 52.3735C188.06 52.0091 188.387 51.6445 188.712 51.2795C190.236 49.5774 191.786 47.8892 193.346 46.2065C193.761 45.7622 193.761 45.7622 194.072 45.26C191.059 45.26 188.046 45.26 184.941 45.26C184.941 43.6984 184.941 42.1369 184.941 40.528Z" fill="#FCFCFC"/>
<path d="M141.246 33.5546C144.259 33.5546 147.272 33.5546 150.376 33.5546C150.376 41.8554 150.376 50.1563 150.376 58.7087C147.363 58.7087 144.35 58.7087 141.246 58.7087C141.246 50.4078 141.246 42.107 141.246 33.5546Z" fill="#FBFBFB"/>
<path d="M177.054 5.6142C177.305 5.61115 177.556 5.6081 177.814 5.60496C180.05 5.60064 182.157 5.79743 184.065 6.76606C184.272 6.86848 184.48 6.97089 184.693 7.0764C185.679 7.63924 186.176 7.99128 186.572 8.89856C186.621 9.44886 186.653 10.0001 186.675 10.5514C186.689 10.8749 186.702 11.1983 186.716 11.5316C186.729 11.8732 186.742 12.2149 186.755 12.5565C186.769 12.901 186.784 13.2456 186.798 13.5901C186.833 14.4337 186.866 15.2774 186.898 16.121C187.866 16.2443 187.866 16.2443 188.854 16.3701C188.854 17.3563 188.854 18.3426 188.854 19.3587C186.75 20.0015 184.388 20.2576 182.202 19.633C181.579 19.3587 181.579 19.3587 180.702 18.8606C180.702 18.6962 180.702 18.5318 180.702 18.3625C180.482 18.4495 180.262 18.5365 180.035 18.6261C179.744 18.7395 179.453 18.8528 179.153 18.9695C178.866 19.0822 178.578 19.1949 178.282 19.311C176.714 19.8645 175.284 19.9094 173.569 19.919C173.343 19.9242 173.116 19.9293 172.883 19.9346C171.324 19.9436 170.284 19.7375 168.963 19.1096C167.534 17.9295 167.231 17.0053 167.264 15.4429C167.414 14.207 168.1 13.5358 169.249 12.6966C171.63 11.3871 174.074 11.351 176.912 11.3735C177.183 11.3746 177.454 11.3757 177.733 11.3769C178.397 11.3798 179.06 11.3843 179.724 11.3891C179.563 10.4028 179.563 10.4028 179.398 9.39666C178.705 9.37654 178.012 9.36202 177.319 9.34996C176.933 9.34129 176.547 9.33263 176.15 9.3237C175.823 9.34777 175.496 9.37185 175.159 9.39666C174.836 9.7665 174.836 9.7665 174.507 10.1438C173.834 10.2286 173.834 10.2286 173.016 10.2168C172.724 10.2144 172.432 10.212 172.131 10.2095C171.673 10.2001 171.673 10.2001 171.205 10.1905C170.897 10.1871 170.589 10.1838 170.271 10.1803C169.509 10.1715 168.747 10.1592 167.985 10.1438C167.911 9.33292 167.865 8.80855 168.404 8.09401C170.907 5.98893 173.434 5.61649 177.054 5.6142Z" fill="#FBFBFB"/>
<path d="M209.072 5.16279C209.656 6.25894 210.236 7.35648 210.811 8.45529C211.007 8.82705 211.204 9.19846 211.401 9.56945C212.767 12.1314 213.833 14.6644 214.615 17.3663C214.723 17.3663 214.831 17.3663 214.941 17.3663C214.976 17.1959 215.01 17.0256 215.046 16.85C215.38 15.203 215.725 13.5574 216.08 11.9129C216.18 11.4473 216.278 10.9813 216.372 10.5149C216.471 10.027 216.582 9.54049 216.694 9.0542C216.751 8.79544 216.807 8.53668 216.865 8.27008C217.224 7.65329 217.224 7.65329 218.167 7.19508C219.234 6.89092 220.008 6.84455 221.137 6.90614C221.243 8.49793 220.965 9.81591 220.459 11.3569C219.97 12.9393 219.678 14.5544 219.355 16.1605C218.626 19.6682 218.626 19.6682 217.876 21.102C216.607 21.6836 215.423 21.6532 213.963 21.6001C213.348 20.7765 213.128 20.0075 212.903 19.0785C211.933 15.4898 210.136 12.0621 208.42 8.6495C207.98 9.78527 207.604 10.9115 207.299 12.0739C207.213 12.395 207.128 12.716 207.04 13.0468C206.847 13.8281 206.708 14.6074 206.589 15.3972C206.537 15.7171 206.537 15.7171 206.484 16.0434C206.417 16.4621 206.358 16.8817 206.31 17.3018C206.216 17.8715 206.118 18.3359 205.811 18.8606C204.372 19.5196 203.238 19.7008 201.572 19.6077C201.488 18.1037 201.805 16.7391 202.202 15.2688C202.267 15.0243 202.331 14.7798 202.397 14.5278C202.533 14.0136 202.67 13.4995 202.808 12.9856C203.019 12.1979 203.227 11.4097 203.435 10.6215C203.567 10.1211 203.7 9.6207 203.833 9.12036C203.895 8.88454 203.958 8.64872 204.022 8.40575C204.11 8.07771 204.11 8.07771 204.2 7.74304C204.252 7.55086 204.303 7.35868 204.356 7.16068C204.507 6.65709 204.507 6.65709 204.833 5.90994C205.461 5.67354 205.461 5.67354 206.239 5.48967C206.493 5.42706 206.748 5.36446 207.01 5.29996C207.768 5.16279 207.768 5.16279 209.072 5.16279Z" fill="#F4F3F3"/>
<path d="M163.807 5.6142C164.094 5.61581 164.381 5.61741 164.677 5.61907C165.376 5.6609 165.376 5.6609 165.702 5.90995C165.73 6.24434 165.737 6.57983 165.734 6.91491C165.733 7.11636 165.732 7.31781 165.731 7.52537C165.727 7.84296 165.727 7.84296 165.723 8.16697C165.721 8.37966 165.72 8.59235 165.718 8.81149C165.714 9.33862 165.709 9.86574 165.702 10.3929C165.411 10.3964 165.121 10.3999 164.821 10.4036C164.439 10.4154 164.058 10.4273 163.664 10.4396C163.097 10.4526 163.097 10.4526 162.518 10.4658C161.409 10.5734 161.409 10.5734 160.694 11.2461C159.859 12.2469 159.777 12.8214 159.73 14.0138C159.716 14.3381 159.702 14.6623 159.688 14.9964C159.675 15.3401 159.662 15.6839 159.649 16.0276C159.635 16.3733 159.621 16.719 159.607 17.0647C159.572 17.9123 159.539 18.76 159.507 19.6077C157.354 19.6077 155.202 19.6077 152.985 19.6077C152.985 15.0875 152.985 10.5672 152.985 5.90995C154.814 5.90995 156.644 5.90995 158.528 5.90995C158.744 6.40307 158.959 6.89619 159.181 7.40425C159.423 7.20906 159.665 7.01387 159.914 6.81276C161.203 5.87318 162.026 5.59211 163.807 5.6142Z" fill="#FCFCFC"/>
<path d="M70.1588 16.1366C70.6755 16.9011 70.6031 17.5199 70.4849 18.3625C69.9478 18.9326 69.637 19.0894 68.7297 19.2303C68.287 19.263 68.287 19.263 67.8355 19.2964C65.0636 19.6427 63.4073 20.8368 61.7621 22.5185C58.8423 25.9358 58.0124 29.6732 57.738 33.6756C57.5861 35.3954 57.5861 35.3954 56.8186 36.1997C55.9487 36.6381 55.529 36.6993 54.5067 36.5432C53.5994 36.0061 53.2376 35.7248 53.0635 34.8465C53.0818 34.4536 53.0818 34.4536 53.1004 34.0527C53.1134 33.7644 53.1265 33.4761 53.1399 33.179C53.1605 32.892 53.1811 32.605 53.2023 32.3093C53.2128 32.0634 53.2233 31.8175 53.2342 31.5641C53.4475 28.4812 54.6339 25.5834 56.4632 22.8454C56.5754 22.6601 56.6877 22.4749 56.8033 22.284C58.5752 19.5529 61.5381 17.2435 65.2675 16.121C66.8209 15.8298 68.6932 15.5419 70.1588 16.1366Z" fill="#F6F6F6"/>
<path d="M34.4523 8.50941C35.5936 8.64951 35.5936 8.64951 36.2254 9.13204C37.1531 11.1743 36.4249 12.9694 35.2675 14.8758C32.2946 19.198 27.1476 21.3891 21.2789 22.8045C19.2352 23.2649 17.2723 23.4004 15.1521 23.4213C14.9047 23.4285 14.6573 23.4358 14.4024 23.4432C12.6038 23.459 12.6038 23.459 11.7906 22.8804C11.3867 22.2227 11.3185 21.8202 11.4632 21.102C11.9912 20.5727 12.3084 20.3788 13.1634 20.2252C13.4413 20.2073 13.7193 20.1894 14.0057 20.171C14.316 20.1475 14.6264 20.1239 14.9462 20.0997C15.2764 20.076 15.6067 20.0524 15.9469 20.028C21.6235 19.5408 26.2054 18.1078 30.0705 14.7979C31.4818 13.3029 32.1459 12.0756 32.2118 10.2177C32.4509 9.08723 32.9933 8.68851 34.4523 8.50941Z" fill="#F7F7F7"/>
<path d="M191.137 5.90995C193.397 5.90995 195.657 5.90995 197.985 5.90995C197.985 10.4302 197.985 14.9505 197.985 19.6077C195.725 19.6077 193.465 19.6077 191.137 19.6077C191.137 15.0875 191.137 10.5672 191.137 5.90995Z" fill="#F9F9F9"/>
<path d="M47.6385 20.2926C48.6371 20.3549 48.6371 20.3549 49.6154 20.853C49.9516 22.5123 49.7909 24.143 48.6371 25.585C45.8796 28.4331 43.0841 29.0614 38.6647 29.5931C37.0886 29.9123 36.2305 30.4369 35.3694 31.4843C34.9244 32.3421 34.673 33.1587 34.4612 34.0643C34.2893 34.5508 34.2893 34.5508 33.6371 35.0489C32.4775 35.1644 31.8926 35.1554 30.9061 34.6597C30.1623 33.8075 30.2238 33.3237 30.3762 32.3093C31.1233 29.9532 32.6626 28.226 35.2675 26.8302C36.7642 26.2638 38.1973 26.0671 39.8531 25.9897C41.5708 25.8815 42.8072 25.4943 44.0719 24.5888C44.9118 23.678 45.359 22.6978 45.7431 21.6313C46.1059 20.6417 46.2752 20.3812 47.6385 20.2926Z" fill="#F7F7F7"/>
<path d="M135.702 48.9957C136.951 49.6145 137.678 50.2249 138.144 51.3189C138.603 53.1482 138.899 55.4795 137.618 57.1365C136.077 58.6328 134.183 59.6776 131.789 60.203C129.98 60.3374 128.183 60.3194 126.367 60.3003C125.845 60.2984 125.322 60.297 124.8 60.296C123.435 60.2922 122.07 60.2824 120.704 60.2714C119.307 60.2611 117.91 60.2566 116.514 60.2516C113.779 60.241 111.045 60.224 108.311 60.203C108.311 59.7099 108.311 59.2167 108.311 58.7087C108.702 58.709 108.702 58.709 109.102 58.7093C111.577 58.7098 114.052 58.7032 116.527 58.6887C117.799 58.6815 119.07 58.6769 120.342 58.6788C121.573 58.6804 122.804 58.6747 124.034 58.6642C124.501 58.6615 124.967 58.6612 125.433 58.6637C128.761 58.6793 131.744 58.3284 134.323 56.572C134.827 56.1513 134.827 56.1513 135.376 55.471C135.495 55.3323 135.614 55.1936 135.737 55.0507C136.16 54.2142 136.11 53.3966 136.09 52.5135C136.089 52.3405 136.089 52.1675 136.089 51.9892C136.078 50.9673 135.959 49.9981 135.702 48.9957Z" fill="#605F5E"/>
<path d="M150.376 35.0489C151.022 35.0489 151.668 35.0489 152.333 35.0489C152.333 43.3497 152.333 51.6506 152.333 60.203C149.32 60.203 146.307 60.203 143.202 60.203C143.202 59.7099 143.202 59.2167 143.202 58.7087C145.57 58.7087 147.937 58.7087 150.376 58.7087C150.376 50.9009 150.376 43.0932 150.376 35.0489Z" fill="#5F5F5F"/>
<path d="M234.833 43.7656C237.122 45.0372 238.207 46.6199 238.746 48.7467C238.746 49.8973 238.746 51.0479 238.746 52.2334C235.195 52.1512 231.644 52.069 227.985 51.9843C227.877 52.4774 227.77 52.9706 227.659 53.4786C226.736 54.3548 226.227 54.6609 224.771 54.8357C223.213 54.8786 222.065 54.8161 220.628 54.3347C219.661 53.5969 219.265 52.9769 218.854 51.9843C218.854 51.5734 218.854 51.1624 218.854 50.7391C224.665 50.7391 230.476 50.7391 236.463 50.7391C236.221 47.4993 236.221 47.4993 235.159 44.5128C234.997 44.143 234.997 44.143 234.833 43.7656Z" fill="#686868"/>
<path d="M236.463 52.7314C236.625 53.1013 236.625 53.1013 236.789 53.4786C237.435 53.4786 238.081 53.4786 238.746 53.4786C238.983 55.1437 238.298 56.3204 237.115 57.7124C235.183 59.5178 231.922 60.4295 228.963 60.7011C223.603 61.0016 218.972 60.5853 214.615 57.9615C214.723 57.7971 214.831 57.6327 214.941 57.4634C215.123 57.5295 215.305 57.5957 215.492 57.6638C215.865 57.7958 215.865 57.7958 216.246 57.9304C216.488 58.017 216.73 58.1037 216.979 58.193C219.266 58.8728 221.316 59.0368 223.746 59.02C224.023 59.0219 224.301 59.0238 224.586 59.0258C227.879 59.0181 230.939 58.3182 233.793 57.0587C235.251 55.8498 236.115 54.3458 236.463 52.7314Z" fill="#5E5E5E"/>
<path d="M207.768 55.471C208.413 55.471 209.059 55.471 209.724 55.471C209.724 57.0331 209.724 58.5952 209.724 60.2046C201.976 60.2046 194.228 60.2046 186.246 60.2046C186.246 59.7113 186.246 59.218 186.246 58.7098C193.348 58.7098 200.45 58.7098 207.768 58.7098C207.768 57.641 207.768 56.5722 207.768 55.471Z" fill="#5F5F5F"/>
<path d="M116.463 49.2448C117.91 49.2247 119.357 49.2098 120.804 49.1981C121.216 49.1918 121.628 49.1855 122.052 49.1791C122.446 49.1767 122.84 49.1743 123.246 49.1718C123.61 49.1679 123.973 49.164 124.348 49.1599C125.268 49.2448 125.268 49.2448 125.874 49.59C126.359 50.115 126.387 50.4586 126.388 51.0977C126.398 51.3824 126.398 51.3824 126.408 51.6729C126.181 52.4591 125.758 52.7305 124.941 53.2309C124.015 53.3441 124.015 53.3441 122.959 53.3282C122.581 53.325 122.203 53.3218 121.813 53.3185C121.42 53.3102 121.026 53.3018 120.621 53.2932C120.023 53.2865 120.023 53.2865 119.413 53.2796C118.43 53.2679 117.446 53.25 116.463 53.2309C116.463 51.9155 116.463 50.6001 116.463 49.2448Z" fill="#605D5B"/>
<path d="M207.441 42.0223C208.087 42.0223 208.733 42.0223 209.398 42.0223C209.609 43.7465 209.288 44.6949 207.91 46.0538C207.584 46.3946 207.258 46.7358 206.933 47.0772C206.755 47.2614 206.577 47.4455 206.393 47.6352C205.278 48.8103 204.225 50.019 203.162 51.2216C202.74 51.6963 202.318 52.1707 201.895 52.6449C201.715 52.8478 201.535 53.0506 201.349 53.2597C200.92 53.7277 200.92 53.7277 200.594 53.9767C200.044 53.9947 199.493 53.9976 198.943 53.9923C198.643 53.99 198.343 53.9878 198.035 53.9855C197.803 53.9826 197.571 53.9797 197.333 53.9767C199.485 51.3582 201.717 48.7816 204.016 46.2367C204.209 46.0229 204.402 45.8091 204.601 45.5888C204.981 45.1679 205.362 44.7476 205.745 44.328C205.918 44.136 206.092 43.944 206.271 43.7462C206.426 43.5756 206.581 43.4051 206.741 43.2294C207.169 42.7436 207.169 42.7436 207.441 42.0223Z" fill="#606060"/>
<path d="M116.463 40.279C117.802 40.2522 119.139 40.2323 120.478 40.2167C120.859 40.2083 121.239 40.2 121.632 40.1914C122.178 40.1866 122.178 40.1866 122.737 40.1817C123.073 40.1764 123.409 40.1712 123.756 40.1658C124.615 40.279 124.615 40.279 125.213 40.7298C125.778 41.5393 125.739 42.1167 125.594 43.0194C125.182 43.6929 125.182 43.6929 124.289 44.2651C122.954 44.4229 121.642 44.3818 120.295 44.343C119.927 44.3374 119.56 44.3317 119.181 44.3259C118.275 44.3113 117.369 44.2889 116.463 44.2651C116.463 42.9497 116.463 41.6343 116.463 40.279Z" fill="#605D5B"/>
<path d="M165.702 6.6571C166.509 6.78038 166.509 6.78038 167.333 6.90616C167.333 8.38552 167.333 9.86488 167.333 11.3891C166.271 11.4296 165.21 11.4701 164.148 11.5107C163.045 11.644 162.57 11.7873 161.789 12.3853C161.417 13.2392 161.395 13.9396 161.36 14.8398C161.353 15.0046 161.346 15.1693 161.339 15.3391C161.318 15.8643 161.299 16.3896 161.28 16.9149C161.266 17.2714 161.251 17.628 161.237 17.9845C161.202 18.8576 161.17 19.7308 161.137 20.6039C158.877 20.6039 156.618 20.6039 154.289 20.6039C154.289 20.2752 154.289 19.9464 154.289 19.6077C156.011 19.6077 157.733 19.6077 159.507 19.6077C159.492 19.1037 159.476 18.5997 159.461 18.0804C159.452 17.5883 159.443 17.0962 159.435 16.604C159.428 16.2639 159.42 15.9238 159.408 15.5838C159.392 15.093 159.386 14.602 159.379 14.1111C159.372 13.8164 159.366 13.5216 159.359 13.2179C159.575 12.0002 160.344 11.2476 161.463 10.3929C162.88 10.3233 164.282 10.3716 165.702 10.3929C165.702 9.16006 165.702 7.92726 165.702 6.6571Z" fill="#636363"/>
<path d="M148.746 12.3853C149.825 12.641 150.057 12.8931 150.621 13.6616C151.337 15.1239 151.24 16.3586 150.498 17.7866C149.689 19.0533 148.687 19.7721 147.002 20.3835C146.059 20.6238 145.328 20.664 144.336 20.6605C143.983 20.6604 143.631 20.6604 143.268 20.6604C142.702 20.6565 142.702 20.6565 142.126 20.6526C141.737 20.6519 141.349 20.6512 140.949 20.6504C139.709 20.6477 138.47 20.6414 137.231 20.6351C136.39 20.6326 135.549 20.6303 134.708 20.6283C132.648 20.6228 130.588 20.6144 128.528 20.6039C128.528 20.2752 128.528 19.9464 128.528 19.6077C128.728 19.6068 128.927 19.6059 129.132 19.605C131.211 19.5945 133.29 19.5773 135.369 19.5561C136.144 19.549 136.919 19.5437 137.695 19.5402C138.811 19.5349 139.927 19.5233 141.043 19.5104C141.388 19.5101 141.733 19.5098 142.088 19.5095C144.174 19.4781 145.386 19.2562 147.115 18.3625C147.331 18.3625 147.546 18.3625 147.768 18.3625C147.862 18.2187 147.956 18.0748 148.053 17.9266C148.277 17.5849 148.511 17.2471 148.765 16.9178C149.14 16.2482 149.148 15.7422 149.133 15.0159C149.13 14.6696 149.13 14.6696 149.127 14.3164C149.074 13.6511 148.939 13.0344 148.746 12.3853Z" fill="#605E5D"/>
<path d="M169.289 44.5128C170.246 44.9604 170.748 45.2463 171.246 46.0076C171.259 46.5058 171.26 47.0043 171.246 47.5024C170.615 47.5251 170.615 47.5251 169.971 47.5482C169.411 47.5692 168.851 47.5903 168.291 47.6114C168.014 47.6212 167.738 47.631 167.453 47.6411C166.244 47.6875 165.075 47.7486 163.878 47.8917C162.56 48.0211 161.337 47.972 160.016 47.8917C159.778 47.8787 159.539 47.8657 159.293 47.8523C158.712 47.8204 158.131 47.7862 157.55 47.7516C157.55 47.2583 157.55 46.765 157.55 46.2568C159.81 46.2568 162.07 46.2568 164.398 46.2568C164.506 45.8457 164.613 45.4346 164.724 45.0111C166.05 44.2667 167.721 44.3499 169.289 44.5128Z" fill="#606060"/>
<path d="M197.985 6.90615C198.523 6.90615 199.061 6.90615 199.615 6.90615C199.615 11.4264 199.615 15.9467 199.615 20.6039C197.356 20.6039 195.096 20.6039 192.768 20.6039C192.768 20.2752 192.768 19.9464 192.768 19.6077C194.489 19.6077 196.211 19.6077 197.985 19.6077C197.985 15.4162 197.985 11.2247 197.985 6.90615Z" fill="#5D5D5D"/>
<path d="M172.224 56.9653C172.783 57.4535 173.328 57.9516 173.855 58.4601C170.171 60.2287 166.844 61.0182 162.441 60.7024C160.78 60.3559 159.368 59.9512 158.202 58.9584C158.31 58.794 158.418 58.6296 158.528 58.4601C158.892 58.5835 158.892 58.5835 159.262 58.7093C163.347 59.5416 167.153 58.7621 170.767 57.2748C171.572 56.9653 171.572 56.9653 172.224 56.9653Z" fill="#606060"/>
<path d="M191.137 0.928928C193.397 0.928928 195.657 0.928928 197.985 0.928928C197.985 2.07993 197.985 3.23093 197.985 4.41681C195.725 4.41681 193.465 4.41681 191.137 4.41681C191.137 3.26581 191.137 2.11481 191.137 0.928928Z" fill="#F7F7F7"/>
<path d="M171.246 50.7391C171.449 52.7204 171.449 52.7204 170.675 53.7131C169.441 54.5775 168.515 54.7978 166.844 54.8031C166.538 54.8072 166.232 54.8114 165.916 54.8157C164.909 54.7104 164.468 54.5181 163.746 53.9778C163.542 53.2616 163.542 53.2616 163.746 52.483C165.121 51.1986 166.57 51.0293 168.669 50.8043C169.535 50.7446 170.377 50.7257 171.246 50.7391Z" fill="#656565"/>
<path d="M208.094 8.40045C209.075 8.77526 209.136 9.31645 209.511 10.0922C209.655 10.3881 209.798 10.6839 209.946 10.9887C210.02 11.144 210.094 11.2992 210.17 11.4592C210.394 11.9284 210.622 12.3964 210.851 12.8644C211.494 14.2021 212.074 15.4518 212.333 16.8682C210.328 16.6447 209.071 16.4007 207.768 15.1248C207.66 14.8783 207.552 14.6317 207.441 14.3777C207.226 14.3777 207.011 14.3777 206.789 14.3777C206.682 14.6242 206.574 14.8708 206.463 15.1248C206.634 13.6601 206.926 12.2266 207.278 10.782C207.342 10.5167 207.342 10.5167 207.407 10.246C207.727 8.96076 207.727 8.96076 208.094 8.40045Z" fill="#E07839"/>
<path d="M134.398 12.3853C135.404 12.3651 136.408 12.3503 137.414 12.3386C137.699 12.3323 137.983 12.3261 138.277 12.3196C140.38 12.3012 140.38 12.3012 141.434 12.7162C141.898 13.1327 141.898 13.1327 142.061 13.8645C141.898 14.6275 141.898 14.6275 141.434 15.1696C140.151 15.8635 138.945 15.7312 137.414 15.6863C137.125 15.6818 136.835 15.6773 136.537 15.6727C135.824 15.661 135.111 15.6431 134.398 15.624C134.398 14.5553 134.398 13.4865 134.398 12.3853Z" fill="#736156"/>
<path d="M226.354 44.9488C227.41 45.856 227.659 46.2694 227.659 47.5024C224.753 47.5024 221.848 47.5024 218.854 47.5024C219.204 46.1657 219.59 45.7165 220.811 44.762C222.598 44.2829 224.716 44.2186 226.354 44.9488Z" fill="#626262"/>
<path d="M135.05 38.0375C136.482 39.0723 137.543 39.8673 137.812 41.3967C137.832 43.312 137.807 44.7863 136.028 46.2562C135.883 46.3952 135.738 46.5342 135.588 46.6774C135.132 47.05 135.132 47.05 134.072 47.5014C133.015 47.377 132.101 47.1026 131.137 46.7543C131.137 46.5077 131.137 46.2611 131.137 46.0071C131.571 45.8684 131.571 45.8684 132.013 45.7269C133.589 45.0457 134.721 44.0787 135.376 42.7694C135.467 41.8725 135.467 41.8725 135.437 40.9016C135.435 40.5754 135.433 40.2492 135.431 39.9131C135.389 39.2316 135.319 38.6814 135.05 38.0375Z" fill="#625F5D"/>
<path d="M134.398 5.66092C135.295 5.64072 136.191 5.6259 137.088 5.6142C137.342 5.60794 137.595 5.60168 137.856 5.59523C138.988 5.58414 139.743 5.58279 140.762 5.98304C141.246 6.40832 141.246 6.40832 141.409 7.28029C141.246 8.15226 141.246 8.15226 140.762 8.57754C139.546 9.05495 138.433 8.9796 137.088 8.94638C136.83 8.943 136.571 8.93963 136.305 8.93616C135.669 8.92738 135.034 8.91398 134.398 8.89966C134.398 7.83088 134.398 6.76209 134.398 5.66092Z" fill="#726156"/>
<path d="M211.354 9.14762C212.829 9.18645 213.937 9.24522 215.104 9.9726C216.178 10.9103 216.111 11.8359 216.032 13.0351C215.839 14.4868 215.58 15.9269 215.268 17.3663C214.945 17.3663 214.622 17.3663 214.289 17.3663C214.187 17.0536 214.084 16.7409 213.978 16.4187C213.011 13.4611 213.011 13.4611 211.582 10.6195C211.354 10.1438 211.354 10.1438 211.354 9.14762Z" fill="#D5773E"/>
<path d="M179.724 43.5166C181.406 44.6623 182.241 45.7354 182.444 47.4347C182.439 47.7595 182.434 48.0842 182.428 48.4188C182.427 48.5932 182.426 48.7677 182.424 48.9474C182.419 49.498 182.406 50.0484 182.394 50.599C182.389 50.975 182.385 51.351 182.381 51.727C182.37 52.643 182.353 53.5589 182.333 54.4748C180.743 54.2569 180.743 54.2569 180.376 53.9767C180.328 53.3306 180.3 52.6903 180.285 52.0437C180.279 51.8485 180.273 51.6534 180.266 51.4524C180.247 50.8255 180.23 50.1986 180.213 49.5716C180.196 48.9491 180.179 48.3267 180.16 47.7042C180.148 47.3164 180.138 46.9286 180.128 46.5408C180.097 45.5106 179.982 44.5282 179.724 43.5166Z" fill="#5B5B5B"/>
<path d="M183.311 55.9691C183.741 55.9691 184.172 55.9691 184.615 55.9691C184.508 56.8735 184.4 57.7778 184.289 58.7096C184.612 58.7096 184.935 58.7096 185.268 58.7096C185.268 59.1207 185.268 59.5317 185.268 59.9553C182.331 60.9712 179.579 60.9787 176.519 60.2044C175.477 59.8379 174.899 59.3864 174.181 58.7096C174.47 58.7507 174.759 58.7918 175.057 58.8342C177.851 59.1335 180.614 59.1068 183.311 58.4605C183.311 57.6383 183.311 56.8162 183.311 55.9691Z" fill="#5F5F5F"/>
<path d="M175.159 9.14762C175.973 9.04837 175.973 9.04837 176.932 9.05421C177.248 9.05228 177.563 9.05036 177.889 9.04837C178.746 9.14762 178.746 9.14762 179.348 9.43369C179.724 9.89491 179.724 9.89491 179.724 11.3895C176.496 11.5128 176.496 11.5128 173.202 11.6386C173.202 11.4742 173.202 11.3098 173.202 11.1404C171.911 11.1404 170.62 11.1404 169.289 11.1404C169.289 10.8938 169.289 10.6472 169.289 10.3931C168.859 10.3109 168.428 10.2287 167.985 10.144C168.179 10.1404 168.373 10.1367 168.573 10.133C169.451 10.1145 170.328 10.0904 171.205 10.0662C171.663 10.0577 171.663 10.0577 172.131 10.0491C172.423 10.0403 172.715 10.0315 173.016 10.0224C173.286 10.0159 173.556 10.0093 173.834 10.0026C174.635 9.93701 174.635 9.93701 175.159 9.14762Z" fill="#616161"/>
<path d="M179.724 13.8796C179.919 15.4298 179.919 15.4298 179.113 16.2308C177.707 16.7679 176.381 16.8002 174.833 16.6201C174.181 16.1218 174.181 16.1218 174.038 15.5301C174.181 14.8761 174.181 14.8761 174.751 14.3C176.364 13.6602 177.941 13.8014 179.724 13.8796Z" fill="#646464"/>
<path d="M148.094 3.91754C149.165 4.52038 149.888 4.95922 150.376 5.90994C150.597 7.19109 150.63 8.47539 149.846 9.6457C148.984 10.4776 148.446 10.8352 147.115 11.14C146.015 10.9377 146.015 10.9377 145.159 10.6419C145.159 10.4775 145.159 10.3132 145.159 10.1438C145.461 10.0359 145.764 9.92806 146.076 9.81692C147.402 9.28057 147.945 8.98972 148.42 7.90235C148.451 7.36315 148.462 6.82323 148.46 6.28352C148.461 5.99843 148.462 5.71335 148.463 5.41962C148.464 4.65303 148.464 4.65303 148.094 3.91754Z" fill="#665F5B"/>
<path d="M179.724 18.3625C180.047 18.3625 180.37 18.3625 180.702 18.3625C181.253 18.8607 181.253 18.8607 181.681 19.3589C179.432 20.5574 177.877 20.9435 175.179 20.9469C174.923 20.953 174.667 20.9591 174.403 20.9653C172.604 20.9722 171.667 20.7253 170.268 19.8571C171.092 19.5422 171.764 19.6119 172.667 19.6367C175.161 19.7008 177.17 19.5723 179.398 18.6116C179.506 18.5294 179.613 18.4472 179.724 18.3625Z" fill="#636363"/>
<path d="M197.985 0.928928C198.093 1.17557 198.2 1.42221 198.311 1.67633C198.741 1.67633 199.172 1.67633 199.615 1.67633C199.615 2.90955 199.615 4.14276 199.615 5.41335C197.356 5.41335 195.096 5.41335 192.768 5.41335C192.768 5.08449 192.768 4.75563 192.768 4.41681C194.489 4.41681 196.211 4.41681 197.985 4.41681C197.985 3.26581 197.985 2.11481 197.985 0.928928Z" fill="#595959"/>
<path d="M188.855 17.3663C189.285 17.3663 189.715 17.3663 190.159 17.3663C190.159 18.435 190.159 19.5038 190.159 20.605C188.988 20.9031 188.01 20.9053 186.776 20.9164C186.349 20.9228 185.923 20.9293 185.484 20.9359C184.24 20.8508 183.638 20.6838 182.659 20.1067C182.551 19.9423 182.444 19.7779 182.333 19.6085C182.671 19.6114 183.009 19.6143 183.357 19.6172C183.804 19.6196 184.25 19.6218 184.697 19.624C185.03 19.6272 185.03 19.6272 185.371 19.6304C186.472 19.6345 187.476 19.6225 188.528 19.3593C188.636 18.7016 188.744 18.0439 188.855 17.3663Z" fill="#606060"/>
<path d="M186.898 45.2599C189.265 45.2599 191.633 45.2599 194.072 45.2599C193.42 46.506 193.42 46.506 192.768 47.0044C192.155 47.0381 192.155 47.0381 191.42 46.9986C191.157 46.9857 190.894 46.9729 190.624 46.9596C190.349 46.9436 190.075 46.9275 189.792 46.911C189.515 46.8968 189.238 46.8827 188.953 46.8681C188.267 46.8328 187.583 46.7943 186.898 46.7552C186.898 46.2618 186.898 45.7683 186.898 45.2599Z" fill="#5B5B5B"/>
<path d="M186.246 8.15141C187.862 9.38575 187.862 9.38575 187.913 10.3195C187.911 10.7382 187.911 10.7382 187.908 11.1653C187.907 11.618 187.907 11.618 187.905 12.0798C187.902 12.3963 187.899 12.7129 187.897 13.039C187.895 13.3575 187.894 13.676 187.892 14.0041C187.888 14.7928 187.883 15.5814 187.876 16.3701C187.446 16.2879 187.015 16.2057 186.572 16.121C186.464 13.4911 186.357 10.8611 186.246 8.15141Z" fill="#606060"/>
<path d="M208.094 8.40045C208.309 8.48264 208.524 8.56483 208.746 8.6495C208.95 9.41222 208.95 9.41222 209.072 10.1438C208.857 10.1438 208.641 10.1438 208.42 10.1438C208.36 10.4199 208.301 10.696 208.24 10.9805C208.157 11.345 208.075 11.7095 207.992 12.0739C207.953 12.2557 207.915 12.4374 207.875 12.6246C207.64 13.6383 207.416 14.3498 206.463 15.1248C206.634 13.6601 206.926 12.2266 207.278 10.782C207.342 10.5167 207.342 10.5167 207.407 10.246C207.727 8.96076 207.727 8.96076 208.094 8.40045Z" fill="#856B5C"/>
</svg>
