<svg width="100" height="100" viewBox="0 0 100 100" fill="none" xmlns="http://www.w3.org/2000/svg">
<path d="M85.0781 42.7969C78.2031 42.8125 71.4844 40.6719 65.8906 36.6719V64.5938C65.8906 69.7656 64.3125 74.8125 61.3594 79.0625C58.4063 83.3125 54.2344 86.5625 49.3906 88.375C44.5469 90.1875 39.2656 90.4844 34.25 89.2031C29.2344 87.9219 24.7344 85.1562 21.3281 81.2656C17.9219 77.375 15.8125 72.5156 15.2344 67.375C14.6563 62.2344 15.6875 57.0469 18.1406 52.5C20.5938 47.9531 24.3906 44.2656 29.0156 41.9219C33.6406 39.5781 38.8438 38.7188 43.9688 39.4219V53.4688C41.625 52.7344 39.1094 52.75 36.7813 53.5312C34.4531 54.3125 32.4219 55.8125 31 57.7969C29.5781 59.7812 28.8125 62.1875 28.8281 64.6562C28.8438 67.125 29.6406 69.5 31.0938 71.4844C32.5469 73.4688 34.5938 74.9375 36.9375 75.6875C39.2813 76.4375 41.7969 76.4375 44.125 75.6719C46.4531 74.9062 48.5 73.4219 49.9375 71.4375C51.375 69.4531 52.1562 67.0469 52.1562 64.5938V10H65.9063C65.8906 11.1562 66 12.3281 66.2031 13.4687C66.6875 16.0156 67.6719 18.4531 69.125 20.6094C70.5781 22.7656 72.4531 24.6094 74.625 26.0156C77.7344 28.0625 81.375 29.1562 85.0938 29.1562V42.8125L85.0781 42.7969Z" fill="#777777"/>
</svg>
